<svg width="45" height="51" viewBox="0 0 45 51" fill="none" xmlns="http://www.w3.org/2000/svg">
<mask id="path-1-inside-1_224_3" fill="white">
<path d="M40.1819 50.0391H30.5588C28.2081 50.0391 26.2247 47.8904 26.2247 45.1633V36.4033C26.2247 35.7422 25.784 35.2464 25.1963 35.2464H19.3196C18.7319 35.2464 18.2912 35.7422 18.2912 36.4033V45.1633C18.2912 47.8904 16.3813 50.0391 13.9571 50.0391H4.33406C1.98338 50.0391 0 47.8904 0 45.1633V17.3133C0 15.9084 0.587669 14.6688 1.61609 13.925L20.348 0.619807C21.5234 -0.206602 22.9925 -0.206602 24.0944 0.619807L42.8264 14.0076C43.8548 14.7514 44.4425 15.991 44.4425 17.3959V45.1633C44.5159 47.8078 42.5325 50.0391 40.1819 50.0391ZM19.3196 31.5275H25.1963C27.6204 31.5275 29.5304 33.6762 29.5304 36.4033V45.1633C29.5304 45.8244 29.9711 46.3202 30.5588 46.3202H40.1819C40.7695 46.3202 41.2103 45.8244 41.2103 45.1633V17.3133C41.2103 17.2306 41.1368 17.148 41.1368 17.0654L22.3314 3.76016C22.258 3.67752 22.1845 3.67752 22.111 3.76016L3.45255 17.0654C3.3791 17.148 3.30564 17.2306 3.30564 17.3133V45.1633C3.30564 45.8244 3.74639 46.3202 4.33406 46.3202H13.9571C14.5448 46.3202 14.9856 45.8244 14.9856 45.1633V36.4033C14.9856 33.7588 16.8955 31.5275 19.3196 31.5275Z"/>
</mask>
<path d="M40.1819 50.0391H30.5588C28.2081 50.0391 26.2247 47.8904 26.2247 45.1633V36.4033C26.2247 35.7422 25.784 35.2464 25.1963 35.2464H19.3196C18.7319 35.2464 18.2912 35.7422 18.2912 36.4033V45.1633C18.2912 47.8904 16.3813 50.0391 13.9571 50.0391H4.33406C1.98338 50.0391 0 47.8904 0 45.1633V17.3133C0 15.9084 0.587669 14.6688 1.61609 13.925L20.348 0.619807C21.5234 -0.206602 22.9925 -0.206602 24.0944 0.619807L42.8264 14.0076C43.8548 14.7514 44.4425 15.991 44.4425 17.3959V45.1633C44.5159 47.8078 42.5325 50.0391 40.1819 50.0391ZM19.3196 31.5275H25.1963C27.6204 31.5275 29.5304 33.6762 29.5304 36.4033V45.1633C29.5304 45.8244 29.9711 46.3202 30.5588 46.3202H40.1819C40.7695 46.3202 41.2103 45.8244 41.2103 45.1633V17.3133C41.2103 17.2306 41.1368 17.148 41.1368 17.0654L22.3314 3.76016C22.258 3.67752 22.1845 3.67752 22.111 3.76016L3.45255 17.0654C3.3791 17.148 3.30564 17.2306 3.30564 17.3133V45.1633C3.30564 45.8244 3.74639 46.3202 4.33406 46.3202H13.9571C14.5448 46.3202 14.9856 45.8244 14.9856 45.1633V36.4033C14.9856 33.7588 16.8955 31.5275 19.3196 31.5275Z" fill="black"/>
<path d="M1.61609 13.925L-1.27932 9.84865L-1.29671 9.86101L-1.314 9.87351L1.61609 13.925ZM20.348 0.619807L17.4722 -3.47034L17.4624 -3.46346L17.4526 -3.45654L20.348 0.619807ZM24.0944 0.619807L21.0944 4.61981L21.1404 4.65427L21.1871 4.68767L24.0944 0.619807ZM42.8264 14.0076L45.7565 9.95615L45.7451 9.94793L45.7337 9.93978L42.8264 14.0076ZM44.4425 45.1633H39.4425V45.2327L39.4444 45.3021L44.4425 45.1633ZM41.1368 17.0654H46.1368V14.478L44.0247 12.9837L41.1368 17.0654ZM22.3314 3.76016L18.5944 7.08198L18.9754 7.51062L19.4435 7.84185L22.3314 3.76016ZM22.111 3.76016L25.014 7.83113L25.4733 7.50361L25.8481 7.08198L22.111 3.76016ZM3.45255 17.0654L0.549587 12.9944L0.0902869 13.3219L-0.284491 13.7435L3.45255 17.0654ZM14.9856 36.4033H9.98556H14.9856ZM40.1819 45.0391H30.5588V55.0391H40.1819V45.0391ZM30.5588 45.0391C30.9597 45.0391 31.1806 45.2277 31.2279 45.2804C31.2757 45.3335 31.2247 45.3101 31.2247 45.1633H21.2247C21.2247 50.1397 24.961 55.0391 30.5588 55.0391V45.0391ZM31.2247 45.1633V36.4033H21.2247V45.1633H31.2247ZM31.2247 36.4033C31.2247 33.5507 29.0827 30.2464 25.1963 30.2464V40.2464C24.0063 40.2464 22.9214 39.7173 22.1939 38.8987C21.4903 38.1073 21.2247 37.1818 21.2247 36.4033H31.2247ZM25.1963 30.2464H19.3196V40.2464H25.1963V30.2464ZM19.3196 30.2464C15.4332 30.2464 13.2912 33.5507 13.2912 36.4033H23.2912C23.2912 37.1818 23.0256 38.1073 22.3221 38.8987C21.5945 39.7173 20.5096 40.2464 19.3196 40.2464V30.2464ZM13.2912 36.4033V45.1633H23.2912V36.4033H13.2912ZM13.2912 45.1633C13.2912 45.3613 13.2247 45.3824 13.2962 45.302C13.3327 45.2609 13.4077 45.1932 13.5325 45.1345C13.6629 45.0733 13.813 45.0391 13.9571 45.0391V55.0391C19.6801 55.0391 23.2912 50.0819 23.2912 45.1633H13.2912ZM13.9571 45.0391H4.33406V55.0391H13.9571V45.0391ZM4.33406 45.0391C4.735 45.0391 4.95585 45.2277 5.0032 45.2804C5.05095 45.3335 5 45.3101 5 45.1633H-5C-5 50.1397 -1.26376 55.0391 4.33406 55.0391V45.0391ZM5 45.1633V17.3133H-5V45.1633H5ZM5 17.3133C5 17.3067 5.00097 17.3859 4.93669 17.5209C4.87013 17.6607 4.74476 17.8329 4.54618 17.9765L-1.314 9.87351C-3.80711 11.6766 -5 14.5186 -5 17.3133H5ZM4.5115 18.0013L23.2434 4.69616L17.4526 -3.45654L-1.27932 9.84865L4.5115 18.0013ZM23.2239 4.70995C23.002 4.866 22.6653 5 22.2488 5C21.8267 5 21.4152 4.86037 21.0944 4.61981L27.0944 -3.38019C24.1601 -5.58097 20.3145 -5.46886 17.4722 -3.47034L23.2239 4.70995ZM21.1871 4.68767L39.9191 18.0755L45.7337 9.93978L27.0017 -3.44805L21.1871 4.68767ZM39.8963 18.0591C39.6977 17.9155 39.5723 17.7433 39.5058 17.6035C39.4415 17.4685 39.4425 17.3893 39.4425 17.3959H49.4425C49.4425 14.6013 48.2496 11.7592 45.7565 9.95615L39.8963 18.0591ZM39.4425 17.3959V45.1633H49.4425V17.3959H39.4425ZM39.4444 45.3021C39.4453 45.3352 39.4304 45.3322 39.465 45.2928C39.4971 45.2562 39.724 45.0391 40.1819 45.0391V55.0391C45.8207 55.0391 49.5784 49.9876 49.4405 45.0244L39.4444 45.3021ZM19.3196 36.5275H25.1963V26.5275H19.3196V36.5275ZM25.1963 36.5275C25.0522 36.5275 24.9021 36.4933 24.7717 36.4321C24.6468 36.3735 24.5719 36.3057 24.5353 36.2646C24.4639 36.1842 24.5304 36.2053 24.5304 36.4033H34.5304C34.5304 31.4847 30.9192 26.5275 25.1963 26.5275V36.5275ZM24.5304 36.4033V45.1633H34.5304V36.4033H24.5304ZM24.5304 45.1633C24.5304 48.0159 26.6723 51.3202 30.5588 51.3202V41.3202C31.7488 41.3202 32.8337 41.8494 33.5612 42.6679C34.2648 43.4594 34.5304 44.3848 34.5304 45.1633H24.5304ZM30.5588 51.3202H40.1819V41.3202H30.5588V51.3202ZM40.1819 51.3202C44.0683 51.3202 46.2103 48.0159 46.2103 45.1633H36.2103C36.2103 44.3848 36.4759 43.4594 37.1794 42.6679C37.907 41.8494 38.9918 41.3202 40.1819 41.3202V51.3202ZM46.2103 45.1633V17.3133H36.2103V45.1633H46.2103ZM46.2103 17.3133C46.2103 16.9327 46.168 16.5996 46.1152 16.3279C46.0628 16.0585 45.9971 15.8347 45.9422 15.6702C45.8877 15.5065 45.8352 15.3758 45.8024 15.2972C45.7855 15.2565 45.7709 15.2228 45.7612 15.2007C45.7521 15.18 45.7439 15.1615 45.7426 15.1586C45.7393 15.1512 45.7429 15.1593 45.7475 15.1697C45.7526 15.1815 45.7628 15.2049 45.7755 15.2352C45.7996 15.2932 45.844 15.4032 45.8917 15.5462C45.9397 15.6901 45.9997 15.8932 46.0481 16.142C46.0969 16.393 46.1368 16.7054 46.1368 17.0654H36.1368C36.1368 17.4459 36.1791 17.7791 36.2319 18.0507C36.2843 18.3202 36.35 18.5439 36.4049 18.7085C36.4595 18.8722 36.5119 19.0028 36.5447 19.0814C36.5617 19.1221 36.5762 19.1558 36.5859 19.1779C36.595 19.1986 36.6032 19.2171 36.6045 19.22C36.6078 19.2274 36.6042 19.2193 36.5996 19.2089C36.5945 19.1971 36.5843 19.1738 36.5717 19.1434C36.5475 19.0855 36.5031 18.9755 36.4554 18.8324C36.4074 18.6885 36.3474 18.4854 36.2991 18.2366C36.2503 17.9857 36.2103 17.6732 36.2103 17.3133H46.2103ZM44.0247 12.9837L25.2193 -0.321526L19.4435 7.84185L38.249 21.147L44.0247 12.9837ZM26.0685 0.438343C25.5648 -0.128241 24.2789 -1.30182 22.2212 -1.30182C20.1635 -1.30182 18.8776 -0.128241 18.374 0.438343L25.8481 7.08198C25.4179 7.56593 24.2055 8.69818 22.2212 8.69818C20.237 8.69818 19.0245 7.56593 18.5944 7.08198L26.0685 0.438343ZM19.2081 -0.310805L0.549587 12.9944L6.35552 21.1363L25.014 7.83113L19.2081 -0.310805ZM-0.284491 13.7435C-0.292939 13.753 -0.365369 13.8339 -0.442513 13.9264C-0.521995 14.0218 -0.659821 14.1925 -0.808719 14.4158C-1.04932 14.7767 -1.69436 15.8178 -1.69436 17.3133H8.30564C8.30564 18.7261 7.69733 19.6845 7.51182 19.9628C7.30984 20.2658 7.09563 20.4929 7.1896 20.3872L-0.284491 13.7435ZM-1.69436 17.3133V45.1633H8.30564V17.3133H-1.69436ZM-1.69436 45.1633C-1.69436 48.0159 0.447609 51.3202 4.33406 51.3202V41.3202C5.52409 41.3202 6.60895 41.8494 7.33651 42.6679C8.04007 43.4594 8.30564 44.3848 8.30564 45.1633H-1.69436ZM4.33406 51.3202H13.9571V41.3202H4.33406V51.3202ZM13.9571 51.3202C17.8436 51.3202 19.9856 48.0159 19.9856 45.1633H9.98556C9.98556 44.3848 10.2511 43.4594 10.9547 42.6679C11.6822 41.8494 12.7671 41.3202 13.9571 41.3202V51.3202ZM19.9856 45.1633V36.4033H9.98556V45.1633H19.9856ZM19.9856 36.4033C19.9856 36.2734 20.0355 36.2332 19.9998 36.2738C19.977 36.2997 19.9132 36.3626 19.7899 36.422C19.6595 36.4848 19.494 36.5275 19.3196 36.5275V26.5275C13.5455 26.5275 9.98556 31.6253 9.98556 36.4033H19.9856Z" fill="black" mask="url(#path-1-inside-1_224_3)"/>
</svg>
