<svg width="40" height="41" viewBox="0 0 40 41" fill="none" xmlns="http://www.w3.org/2000/svg">
<path d="M28.0779 17.0954C28.854 17.0954 29.5008 16.3554 29.5008 15.4673C29.5008 14.5792 28.9187 13.7651 28.0779 13.7651L25.2968 13.6171L24.3266 10.8048C24.0679 9.91674 23.2271 9.54671 22.451 9.84273C21.6748 10.1388 21.3515 11.1749 21.6102 11.9889L22.9037 15.8373C23.0977 16.4294 23.6152 16.8734 24.1973 16.8734L28.0779 17.0954Z" fill="#4B2E20"/>
<path d="M39.0082 15.5413C38.8142 14.7273 38.1674 14.2092 37.4559 14.2092L33.64 14.0612C32.8639 13.9872 32.1524 14.7273 32.1524 15.6894C32.1524 16.5774 32.7345 17.3915 33.5753 17.3915H34.0281L32.0877 19.0937C31.441 19.6117 31.3116 20.7218 31.829 21.4619C32.0877 21.906 32.5405 22.128 32.9932 22.128C33.3166 22.128 33.5753 22.054 33.8987 21.7579L38.5554 17.7616C39.0082 17.1695 39.2669 16.2814 39.0082 15.5413Z" fill="#4B2E20"/>
<path d="M28.6598 21.906L26.3961 23.8302C25.9433 24.2742 25.6846 24.9403 25.8787 25.6064L26.6548 28.7147C26.8488 29.4547 27.4309 29.8988 28.0777 29.8988C28.207 29.8988 28.3364 29.8988 28.4657 29.8248C29.2419 29.5288 29.6946 28.6407 29.4359 27.7526L28.9185 25.7544L30.406 24.4963C31.0528 23.9782 31.1822 22.8681 30.6648 22.128C30.212 21.536 29.3065 21.388 28.6598 21.906Z" fill="#4B2E20"/>
<path d="M31.1824 34.4873C30.9884 33.5992 30.1476 33.0812 29.3715 33.3772C28.5954 33.6732 28.1426 34.5613 28.4013 35.4494L28.5307 35.9675L26.7197 34.5613C26.073 34.0433 25.1675 34.2653 24.7147 35.0794C24.262 35.8194 24.456 36.8555 25.1675 37.3736L29.6949 40.7039C29.9536 40.9259 30.277 40.9999 30.6003 40.9999C30.9884 40.9999 31.3118 40.8519 31.6352 40.6299C32.2173 40.1119 32.476 39.2978 32.2173 38.5577L31.1824 34.4873Z" fill="#4B2E20"/>
<path d="M23.4212 32.1931L20.3167 29.8989C20.3167 29.8989 20.3167 29.8989 20.252 29.8989C20.1873 29.8249 20.058 29.7509 19.9286 29.7509H19.8639C19.7346 29.7509 19.6052 29.6769 19.4759 29.6769H19.4112C19.2818 29.6769 19.2172 29.6769 19.0878 29.7509H19.0231C18.8938 29.8249 18.7644 29.8249 18.6997 29.8989L10.4858 35.8935L13.2022 25.6805C13.3962 25.0144 13.1375 24.2744 12.6848 23.9043L5.11757 17.3917L14.8191 16.9477C15.4012 16.9477 15.9186 16.5036 16.1127 15.9116L19.5405 5.77256L19.8639 6.80866C20.058 7.47473 20.6401 7.84476 21.2222 7.84476C21.4162 7.84476 21.5455 7.84476 21.7396 7.69675C22.5157 7.40072 22.8391 6.36462 22.5804 5.55054L21.1575 1.25812C20.8988 0.51805 20.252 0 19.5405 0C18.8291 0 18.1823 0.51805 17.9236 1.25812L13.7196 13.6913L1.62501 14.2094C0.913563 14.2094 0.266793 14.8014 0.0727617 15.5415C-0.121269 16.2816 0.0727616 17.1697 0.654855 17.6877L10.1624 25.9025L6.92853 38.5578C6.7345 39.3718 6.9932 40.1859 7.51062 40.63C7.83401 40.926 8.15739 41 8.54545 41C8.86884 41 9.19222 40.926 9.45093 40.704L19.5405 33.3032L21.8689 35.0054C22.1276 35.1534 22.3863 35.3014 22.645 35.3014C23.0978 35.3014 23.6152 35.0054 23.8739 34.5614C24.3267 33.7473 24.1326 32.7112 23.4212 32.1931Z" fill="#4B2E20"/>
</svg>
